<svg xmlns="http://www.w3.org/2000/svg" xmlns:xlink="http://www.w3.org/1999/xlink" width="125.998" height="125.999" viewBox="0 0 125.998 125.999"><defs><style>.a,.b,.c{fill-rule:evenodd;}.a{fill:url(#a);}.b{fill:url(#b);}.c{fill:#f6ca78;}</style><linearGradient id="a" y1="0.5" x2="1" y2="0.5" gradientUnits="objectBoundingBox"><stop offset="0" stop-color="#d83711"/><stop offset="1" stop-color="#f0af13"/></linearGradient><linearGradient id="b" x1="0.234" y1="-0.027" x2="0.769" y2="1.034" xlink:href="#a"/></defs><path class="a" d="M159.7,378.666a63,63,0,1,1-63-63A63,63,0,0,1,159.7,378.666Z" transform="translate(-33.701 -315.667)"/><path class="b" d="M149.033,378.666A52.333,52.333,0,1,1,96.7,326.334,52.334,52.334,0,0,1,149.033,378.666Z" transform="translate(-33.701 -315.667)"/><path class="c" d="M122.25,373.144q-17.45-11.349-34.928-22.657C82.85,347.6,78.8,349.1,78,353.819v51.246c.81,4.1,4.422,5.745,8.373,3.7.346-.179.675-.39,1-.6q17.466-11.33,34.922-22.67C127.43,382.143,127.387,376.483,122.25,373.144Z" transform="translate(-33.701 -315.667)"/></svg>